<svg width="12" height="12" viewBox="0 0 12 12" fill="none" xmlns="http://www.w3.org/2000/svg">
<path d="M4.85464 9.70928C2.16592 9.70928 0 7.54336 0 4.85464C0 2.16592 2.16592 0 4.85464 0C7.54336 0 9.70928 2.16592 9.70928 4.85464C9.70928 7.54336 7.54336 9.70928 4.85464 9.70928ZM4.85464 0.746868C2.57669 0.746868 0.746868 2.57669 0.746868 4.85464C0.746868 7.13259 2.57669 8.96241 4.85464 8.96241C7.13259 8.96241 8.96241 7.13259 8.96241 4.85464C8.96241 2.57669 7.13259 0.746868 4.85464 0.746868Z" fill="#8E8E93"/>
<path d="M8.47139 7.94165L11.8248 11.2951L11.2968 11.8231L7.94336 8.46969L8.47139 7.94165Z" fill="#8E8E93"/>
</svg>
