<svg width="69" height="69" viewBox="0 0 69 69" fill="none" xmlns="http://www.w3.org/2000/svg">
<path d="M7.50265 35.9245C7.54935 36.8125 8.28297 37.5084 9.17218 37.5084H59.5771C60.4663 37.5084 61.2 36.8124 61.2467 35.9245L62.0941 19.8301C62.1948 17.9169 60.6708 16.3105 58.755 16.3105H9.9943C8.07856 16.3105 6.55448 17.917 6.65524 19.8301L7.50265 35.9245Z" fill="#0F52BA"/>
<path d="M11.7386 30.7988H57.0113V37.5078H11.7386V30.7988Z" fill="#F4F5F9"/>
<path d="M57.3503 40.7858H11.3993C10.6654 40.7858 10.0172 40.3071 9.80133 39.6057L9.15576 37.5078H59.5937L58.9481 39.6057C58.7322 40.3071 58.0842 40.7858 57.3503 40.7858Z" fill="#0F52BA"/>
<path d="M6.12427 25.4971L7.79436 25.4085L8.0872 30.9283L6.41711 31.0169L6.12427 25.4971Z" fill="black"/>
<path d="M33.5391 50.6221H35.2109V52.2567H33.5391V50.6221Z" fill="black"/>
<path d="M33.5391 47.3525H35.2109V48.9872H33.5391V47.3525Z" fill="black"/>
<path d="M33.5391 44.084H35.2109V45.7186H33.5391V44.084Z" fill="black"/>
<path d="M27.2782 47.3525H28.9501V48.9872H27.2782V47.3525Z" fill="black"/>
<path d="M27.2782 50.6221H28.9501V52.2567H27.2782V50.6221Z" fill="black"/>
<path d="M27.2782 44.084H28.9501V45.7186H27.2782V44.084Z" fill="black"/>
<path d="M21.0173 47.3525H22.6892V48.9872H21.0173V47.3525Z" fill="black"/>
<path d="M21.0173 44.084H22.6892V45.7186H21.0173V44.084Z" fill="black"/>
<path d="M21.0173 50.6221H22.6892V52.2567H21.0173V50.6221Z" fill="black"/>
<path d="M14.7567 50.6221H16.4286V52.2567H14.7567V50.6221Z" fill="black"/>
<path d="M14.7567 44.084H16.4286V45.7186H14.7567V44.084Z" fill="black"/>
<path d="M14.7567 47.3525H16.4286V48.9872H14.7567V47.3525Z" fill="black"/>
<path d="M39.7997 47.3525H41.4716V48.9872H39.7997V47.3525Z" fill="black"/>
<path d="M39.7997 44.084H41.4716V45.7186H39.7997V44.084Z" fill="black"/>
<path d="M39.7997 50.6221H41.4716V52.2567H39.7997V50.6221Z" fill="black"/>
<path d="M46.0605 47.3525H47.7324V48.9872H46.0605V47.3525Z" fill="black"/>
<path d="M46.0605 44.084H47.7324V45.7186H46.0605V44.084Z" fill="black"/>
<path d="M46.0605 50.6221H47.7324V52.2567H46.0605V50.6221Z" fill="black"/>
<path d="M52.3214 44.084H53.9933V45.7186H52.3214V44.084Z" fill="black"/>
<path d="M52.3214 50.6221H53.9933V52.2567H52.3214V50.6221Z" fill="black"/>
<path d="M52.3214 47.3525H53.9933V48.9872H52.3214V47.3525Z" fill="black"/>
<path d="M28.2484 25.8555H40.501V27.5273H28.2484V25.8555Z" fill="white"/>
<path d="M61.7876 16.7776C60.9905 15.9373 59.9137 15.4746 58.7554 15.4746H9.99459C8.83632 15.4746 7.75952 15.9374 6.96237 16.7776C6.16533 17.6178 5.75985 18.7175 5.82082 19.874L6.12588 25.6696L7.79541 25.5816L7.49035 19.786C7.45379 19.0921 7.69699 18.4323 8.17537 17.9281C8.65375 17.424 9.29987 17.1464 9.9947 17.1464H58.7554C59.4502 17.1464 60.0965 17.424 60.5747 17.9281C61.053 18.4323 61.2963 19.0921 61.2598 19.786L60.4123 35.8804C60.3889 36.3244 60.0222 36.6724 59.5775 36.6724H57.8474V29.9634H10.9028V36.6724H9.17247C8.72776 36.6724 8.36106 36.3244 8.33765 35.8805L8.05321 30.4788L6.38368 30.5667L6.66812 35.9683C6.7263 37.0718 7.4918 37.9753 8.51075 38.2538L9.00261 39.8521C9.3284 40.9109 10.2915 41.6222 11.3994 41.6222H57.3504C58.4581 41.6222 59.4214 40.9109 59.7472 39.8521L60.239 38.2538C61.2581 37.9753 62.0235 37.0718 62.0816 35.9683L62.9291 19.874C62.9901 18.7175 62.5847 17.6178 61.7876 16.7776ZM12.5746 31.6354H56.1755V36.6725H12.5746V31.6354ZM58.1494 39.3605C58.0407 39.7134 57.7197 39.9505 57.3505 39.9505H11.3995C11.0304 39.9505 10.7093 39.7134 10.6006 39.3605L10.2879 38.3444H10.9028H57.8474H58.4622L58.1494 39.3605Z" fill="black"/>
<path d="M17.7391 19.1104H19.3738V20.7822H17.7391V19.1104Z" fill="white"/>
<path d="M14.4698 19.1104H16.1045V20.7822H14.4698V19.1104Z" fill="white"/>
<path d="M11.2006 19.1104H12.8352V20.7822H11.2006V19.1104Z" fill="white"/>
</svg>
