<svg width="68" height="68" viewBox="0 0 68 68" fill="none" xmlns="http://www.w3.org/2000/svg">
<path d="M58.9094 11.1587V22.1182H7.73047V11.1587C7.73047 10.0161 8.66139 9.09082 9.81091 9.09082H56.829C57.9785 9.09082 58.9094 10.0161 58.9094 11.1587Z" fill="#0F52BA"/>
<path d="M58.9094 22.1172V58.184C58.9094 59.3359 57.9785 60.2688 56.829 60.2688H9.81091C8.66139 60.2688 7.73047 59.3359 7.73047 58.184V22.1172H58.9094Z" fill="#F4F5F9"/>
<path d="M14.7094 35.1445H51.9304V53.7551H14.7094V35.1445Z" fill="#0F52BA"/>
<path d="M14.7094 28.6318H51.9304V35.1455H14.7094V28.6318Z" fill="white"/>
<path d="M39.601 41.1943C38.4568 41.1943 37.3846 41.5002 36.4604 42.0351C35.5363 41.5002 34.4641 41.1943 33.3199 41.1943C32.1758 41.1943 31.1036 41.5002 30.1794 42.0351C29.2552 41.5002 28.183 41.1943 27.0389 41.1943C23.5696 41.1943 20.7578 44.0061 20.7578 47.4754C20.7578 50.9447 23.5696 53.7564 27.0389 53.7564C28.183 53.7564 29.2552 53.4506 30.1794 52.9157C31.1036 53.4506 32.1758 53.7564 33.3199 53.7564C34.4641 53.7564 35.5363 53.4506 36.4604 52.9157C37.3846 53.4506 38.4568 53.7564 39.601 53.7564C43.0703 53.7564 45.882 50.9447 45.882 47.4754C45.882 44.0061 43.0703 41.1943 39.601 41.1943Z" fill="white"/>
<path d="M28.2019 15.6053C28.2019 16.1193 27.6812 16.5359 27.0388 16.5359C26.3963 16.5359 25.8756 16.1193 25.8756 15.6053C25.8756 15.0914 26.3963 14.6748 27.0388 14.6748C27.6812 14.6748 28.2019 15.0914 28.2019 15.6053Z" fill="black"/>
<path d="M22.1537 15.6053C22.1537 16.1193 21.633 16.5359 20.9906 16.5359C20.3481 16.5359 19.8274 16.1193 19.8274 15.6053C19.8274 15.0914 20.3481 14.6748 20.9906 14.6748C21.633 14.6748 22.1537 15.0914 22.1537 15.6053Z" fill="black"/>
<path d="M15.64 15.6053C15.64 16.1193 15.2234 16.5359 14.7095 16.5359C14.1955 16.5359 13.7789 16.1193 13.7789 15.6053C13.7789 15.0914 14.1955 14.6748 14.7095 14.6748C15.2234 14.6748 15.64 15.0914 15.64 15.6053Z" fill="black"/>
<path d="M51.8458 14.6748H42.7097C42.149 14.6748 41.6946 15.0914 41.6946 15.6053C41.6946 16.1193 42.149 16.5359 42.7097 16.5359H51.8458C52.4065 16.5359 52.8609 16.1193 52.8609 15.6053C52.8609 15.0914 52.4065 14.6748 51.8458 14.6748Z" fill="black"/>
<path d="M51.8326 54.6864C52.4006 54.6864 52.861 54.2218 52.861 53.6485V28.7391C52.861 28.1658 52.4006 27.7012 51.8326 27.7012H14.8074C14.2393 27.7012 13.7789 28.1658 13.7789 28.7391V53.6485C13.7789 54.2218 14.2393 54.6864 14.8074 54.6864H51.8326ZM22.0067 47.4212C22.0067 44.5597 24.3136 42.2317 27.1491 42.2317C27.497 42.2317 27.8425 42.2682 28.1804 42.3375C26.8808 43.6795 26.1206 45.5023 26.1206 47.4212C26.1206 49.3401 26.8808 51.1629 28.1804 52.5048C27.8425 52.5742 27.497 52.6106 27.1491 52.6106C24.3136 52.6106 22.0067 50.2827 22.0067 47.4212ZM28.1776 47.4212C28.1776 44.5941 30.4483 42.2317 33.32 42.2317C33.6679 42.2317 34.0134 42.2682 34.3513 42.3375C33.0516 43.6795 32.2915 45.5023 32.2915 47.4212C32.2915 49.3401 33.0516 51.1629 34.3513 52.5048C34.0134 52.5742 33.6679 52.6106 33.32 52.6106C30.4475 52.6106 28.1776 50.2474 28.1776 47.4212ZM39.4908 52.6106C36.6183 52.6106 34.3485 50.2474 34.3485 47.4212C34.3485 44.5925 36.6199 42.2317 39.4908 42.2317C42.3264 42.2317 44.6332 44.5597 44.6332 47.4212C44.6332 50.2827 42.3264 52.6106 39.4908 52.6106ZM50.8041 29.777V33.9285H15.8359V29.777H50.8041ZM15.8359 52.6106V36.0043H50.8041V52.6106H44.5223C45.8586 51.291 46.6902 49.4524 46.6902 47.4212C46.6902 43.4151 43.4605 40.1559 39.4908 40.1559C38.4206 40.1559 37.3652 40.3975 36.4054 40.8569C35.4456 40.3975 34.3902 40.1559 33.32 40.1559C32.2493 40.1559 31.1939 40.3975 30.2346 40.8569C29.2748 40.3975 28.2194 40.1559 27.1491 40.1559C23.1794 40.1559 19.9498 43.4151 19.9498 47.4212C19.9498 49.4524 20.7814 51.291 22.1176 52.6106H15.8359Z" fill="black"/>
<path d="M34.2505 60.2704C34.2505 60.7843 33.8339 61.2009 33.3199 61.2009C32.806 61.2009 32.3894 60.7843 32.3894 60.2704C32.3894 59.7564 32.806 59.3398 33.3199 59.3398C33.8339 59.3398 34.2505 59.7564 34.2505 60.2704Z" fill="black"/>
<path d="M56.7321 8.16016H9.90774C8.19399 8.16016 6.79993 9.55422 6.79993 11.268V58.0923C6.79993 59.8061 8.19399 61.2002 9.90774 61.2002H28.6582C29.2304 61.2002 29.6941 60.7364 29.6941 60.1642C29.6941 59.592 29.2304 59.1283 28.6582 59.1283H9.90774C9.33635 59.1283 8.8718 58.6637 8.8718 58.0923V23.2848H57.7681V58.0923C57.7681 58.6637 57.3035 59.1283 56.7321 59.1283H37.9816C37.4095 59.1283 36.9457 59.592 36.9457 60.1642C36.9457 60.7364 37.4095 61.2002 37.9816 61.2002H56.7321C58.4459 61.2002 59.8399 59.8061 59.8399 58.0923V11.268C59.8399 9.55422 58.4459 8.16016 56.7321 8.16016ZM8.8718 21.213V11.268C8.8718 10.6966 9.33635 10.232 9.90774 10.232H56.7321C57.3035 10.232 57.7681 10.6966 57.7681 11.268V21.213H8.8718Z" fill="black"/>
</svg>
