<svg width="69" height="69" viewBox="0 0 69 69" fill="none" xmlns="http://www.w3.org/2000/svg">
<path d="M55.4263 38.3612H53.63V32.0741C53.63 29.9302 52.7784 27.8742 51.2624 26.3582C49.7465 24.8423 47.6905 23.9906 45.5466 23.9906C43.4027 23.9906 41.3467 24.8423 39.8308 26.3582C38.3148 27.8742 37.4632 29.9302 37.4632 32.0741V37.463H35.6669V32.0741C35.6669 29.4538 36.7078 26.9408 38.5606 25.088C40.4134 23.2352 42.9263 22.1943 45.5466 22.1943C48.1669 22.1943 50.6798 23.2352 52.5326 25.088C54.3854 26.9408 55.4263 29.4538 55.4263 32.0741V38.3612Z" fill="#428DC5"/>
<path d="M32.0743 36.5654H57.2227V40.1581H32.0743V36.5654Z" fill="#0F52BA"/>
<path d="M54.5282 57.2222H34.7687L32.9724 40.1572H56.3245L54.5282 57.2222Z" fill="#0F52BA"/>
<path d="M57.2224 36.34V42.8012C57.2224 43.7678 56.4792 44.6009 55.5126 44.6458C55.2697 44.6573 55.0271 44.6195 54.7993 44.5345C54.5715 44.4496 54.3633 44.3193 54.1873 44.1516C54.0113 43.9839 53.8711 43.7822 53.7753 43.5588C53.6795 43.3354 53.63 43.0948 53.6298 42.8517C53.6298 43.3281 53.4406 43.785 53.1037 44.1219C52.7668 44.4587 52.3099 44.648 51.8335 44.648C51.3571 44.648 50.9002 44.4587 50.5633 44.1219C50.2264 43.785 50.0372 43.3281 50.0372 42.8517C50.0372 43.3281 49.8479 43.785 49.5111 44.1219C49.1742 44.4587 48.7173 44.648 48.2409 44.648C47.7645 44.648 47.3076 44.4587 46.9707 44.1219C46.6338 43.785 46.4446 43.3281 46.4446 42.8517C46.445 43.167 46.3621 43.4769 46.2043 43.7498C46.046 44.0227 45.8192 44.2494 45.5464 44.4077C45.282 44.5616 44.9822 44.6443 44.6763 44.648C43.6726 44.6626 42.8519 43.806 42.8519 42.8023V36.34C42.8519 35.685 43.1122 35.0567 43.5754 34.5935C44.0386 34.1303 44.6668 33.8701 45.3219 33.8701H54.7525C55.4076 33.8701 56.0358 34.1303 56.499 34.5935C56.9622 35.0567 57.2224 35.685 57.2224 36.34Z" fill="#F4F5F9"/>
<path d="M34.7687 57.2236H54.5281V60.8163H34.7687V57.2236Z" fill="#0F52BA"/>
<path d="M50.0372 50.0381H51.8335V54.5289H50.0372V50.0381Z" fill="#0F52BA"/>
<path d="M50.0372 46.4453H51.8335V48.2416H50.0372V46.4453Z" fill="#0F52BA"/>
<path d="M46.4447 42.8514C46.4451 43.1667 46.3622 43.4766 46.2044 43.7496C46.0461 44.0224 45.8193 44.2492 45.5465 44.4075V39.2588H46.4447V42.8514Z" fill="#E08122"/>
<path d="M50.0371 42.8514C50.0372 43.1668 49.9543 43.4767 49.7966 43.7499C49.6389 44.023 49.4121 44.2498 49.1389 44.4075V39.2588H50.0371V42.8514Z" fill="#E08122"/>
<path d="M53.6301 42.8514C53.6302 43.1668 53.5473 43.4767 53.3896 43.7499C53.232 44.023 53.0051 44.2498 52.7319 44.4075V39.2588H53.6301V42.8514Z" fill="#E08122"/>
<path d="M41.056 60.8161H12.3149L14.1113 53.6309H39.2597L41.056 60.8161Z" fill="#FBB540"/>
<path d="M15.0092 50.0381H38.3613C38.5995 50.0381 38.828 50.1327 38.9964 50.3011C39.1649 50.4696 39.2595 50.698 39.2595 50.9362V53.6307H14.1111V50.9362C14.1111 50.698 14.2057 50.4696 14.3741 50.3011C14.5426 50.1327 14.771 50.0381 15.0092 50.0381Z" fill="#C17450"/>
<path d="M24.8889 53.6309H28.4815L29.3797 60.8161H23.9907L24.8889 53.6309Z" fill="#EA9D2D"/>
<path d="M15.9072 60.8161L17.7035 53.6309H21.2962L19.4999 60.8161H15.9072Z" fill="#EA9D2D"/>
<path d="M26.6851 8.72266C27.1615 8.72266 27.6184 8.91191 27.9553 9.24878C28.2922 9.58566 28.4814 10.0426 28.4814 10.519V50.0379H24.8888V10.519C24.8888 10.0426 25.078 9.58566 25.4149 9.24878C25.7518 8.91191 26.2087 8.72266 26.6851 8.72266Z" fill="#8F563B"/>
<path d="M17.7037 29.3789C17.4248 30.2155 16.955 30.9757 16.3314 31.5992C15.7079 32.2228 14.9477 32.6926 14.1111 32.9715C14.9477 33.2504 15.7079 33.7203 16.3314 34.3438C16.955 34.9674 17.4248 35.7276 17.7037 36.5642C17.9826 35.7276 18.4524 34.9674 19.076 34.3438C19.6996 33.7203 20.4597 33.2504 21.2963 32.9715C20.4597 32.6926 19.6996 32.2228 19.076 31.5992C18.4524 30.9757 17.9826 30.2155 17.7037 29.3789Z" fill="#FBB540"/>
<path d="M57.2228 18.6025C56.9439 19.4391 56.474 20.1993 55.8505 20.8229C55.2269 21.4464 54.4667 21.9163 53.6301 22.1952C54.4667 22.4741 55.2269 22.9439 55.8505 23.5675C56.474 24.191 56.9439 24.9512 57.2228 25.7878C57.5017 24.9512 57.9715 24.191 58.595 23.5675C59.2186 22.9439 59.9788 22.4741 60.8154 22.1952C59.9788 21.9163 59.2186 21.4464 58.595 20.8229C57.9715 20.1993 57.5017 19.4391 57.2228 18.6025Z" fill="#F4F5F9"/>
<path d="M12.3149 40.1572C12.036 40.9938 11.5662 41.754 10.9426 42.3776C10.3191 43.0011 9.55888 43.471 8.72229 43.7499C9.55888 44.0288 10.3191 44.4986 10.9426 45.1221C11.5662 45.7457 12.036 46.5059 12.3149 47.3425C12.5938 46.5059 13.0636 45.7457 13.6872 45.1221C14.3108 44.4986 15.071 44.0288 15.9075 43.7499C15.071 43.471 14.3108 43.0011 13.6872 42.3776C13.0636 41.754 12.5938 40.9938 12.3149 40.1572Z" fill="#FBB540"/>
<path d="M32.0743 53.6309H35.667L37.4633 60.8161H33.8707L32.0743 53.6309Z" fill="#EA9D2D"/>
<path d="M55.4264 33.04V32.0745C55.4264 29.4542 54.3855 26.9412 52.5327 25.0884C50.6799 23.2356 48.167 22.1947 45.5467 22.1947C42.9264 22.1947 40.4135 23.2356 38.5607 25.0884C36.7079 26.9412 35.667 29.4542 35.667 32.0745V35.6671H32.0743C31.8361 35.6671 31.6077 35.7617 31.4392 35.9301C31.2708 36.0986 31.1762 36.327 31.1762 36.5652V40.1579C31.1762 40.3961 31.2708 40.6245 31.4392 40.793C31.6077 40.9614 31.8361 41.056 32.0743 41.056H32.1642L33.0147 49.1394H29.3799V10.5187C29.3799 9.80407 29.096 9.11872 28.5907 8.61341C28.0854 8.1081 27.4 7.82422 26.6854 7.82422C25.9708 7.82422 25.2854 8.1081 24.7801 8.61341C24.2748 9.11872 23.9909 9.80407 23.9909 10.5187V49.1394H15.0094C14.5331 49.14 14.0765 49.3294 13.7398 49.6662C13.403 50.0029 13.2136 50.4595 13.213 50.9358V53.5196L11.4436 60.5977C11.4105 60.7301 11.408 60.8683 11.4363 61.0018C11.4646 61.1353 11.523 61.2606 11.607 61.3682C11.691 61.4758 11.7984 61.5628 11.921 61.6227C12.0437 61.6825 12.1784 61.7136 12.3149 61.7136H54.5283C54.7665 61.7136 54.9949 61.619 55.1634 61.4506C55.3318 61.2821 55.4264 61.0537 55.4264 60.8155V57.27L56.6942 45.2266C57.1284 44.9885 57.4902 44.6374 57.7414 44.2105C57.9925 43.7836 58.1236 43.2969 58.1209 42.8016V36.3407C58.12 35.5645 57.8515 34.8124 57.3607 34.2111C56.8698 33.6099 56.1867 33.1962 55.4264 33.04ZM37.4633 32.0745C37.4633 31.0129 37.6724 29.9618 38.0786 28.9811C38.4848 28.0003 39.0802 27.1092 39.8309 26.3586C40.5815 25.608 41.4726 25.0126 42.4533 24.6064C43.434 24.2001 44.4852 23.991 45.5467 23.991C46.6082 23.991 47.6594 24.2001 48.6401 24.6064C49.6208 25.0126 50.5119 25.608 51.2625 26.3586C52.0131 27.1092 52.6086 28.0003 53.0148 28.9811C53.421 29.9618 53.6301 31.0129 53.6301 32.0745V32.9726H45.3222C44.546 32.9735 43.7939 33.242 43.1926 33.7328C42.5913 34.2237 42.1777 34.9068 42.0214 35.6671H37.4633V32.0745ZM32.9725 37.4634H41.9541V39.2597H32.9725V37.4634ZM33.9701 41.056H41.9541V42.8029C41.9556 43.1695 42.0295 43.5322 42.1716 43.8701C42.3138 44.208 42.5212 44.5145 42.7822 44.772C43.0324 45.0219 43.33 45.2192 43.6577 45.3523C43.9853 45.4853 44.3363 45.5514 44.6898 45.5467C45.3384 45.5351 45.9612 45.2911 46.4448 44.8589C46.9384 45.3018 47.5781 45.5467 48.2412 45.5467C48.9042 45.5467 49.544 45.3018 50.0375 44.8589C50.5309 45.3016 51.1703 45.5465 51.8332 45.5467C52.496 45.5469 53.1356 45.3023 53.6292 44.8598C53.9776 45.173 54.4023 45.3888 54.8606 45.4856L53.7199 56.3247H40.859L40.1577 53.5196V50.9358C40.1572 50.4595 39.9678 50.0029 39.631 49.6662C39.2942 49.3294 38.8377 49.14 38.3614 49.1394H34.8207L33.9701 41.056ZM25.7872 10.5187C25.7872 10.2805 25.8819 10.052 26.0503 9.8836C26.2187 9.71516 26.4472 9.62053 26.6854 9.62053C26.9236 9.62053 27.1521 9.71516 27.3205 9.8836C27.4889 10.052 27.5835 10.2805 27.5835 10.5187V49.1394H25.7872V10.5187ZM15.0094 50.9358H38.3614V52.7321H15.0094V50.9358ZM17.0578 59.9173L18.4051 54.5284H20.1461L18.7989 59.9173H17.0578ZM14.8124 54.5284H16.5535L15.2063 59.9173H13.4652L14.8124 54.5284ZM21.9977 54.5284H23.8717L23.1981 59.9173H20.6505L21.9977 54.5284ZM25.0083 59.9173L25.6819 54.5284H27.6889L28.3625 59.9173H25.0083ZM30.1727 59.9173L29.4991 54.5284H31.3731L32.7203 59.9173H30.1727ZM34.5719 59.9173L33.2246 54.5284H34.9657L36.313 59.9173H34.5719ZM38.1645 59.9173L36.8173 54.5284H38.5584L39.9056 59.9173H38.1645ZM53.6301 59.9173H41.7571L41.3081 58.121H53.6301V59.9173ZM56.3246 40.1579V42.8016C56.3287 43.0382 56.243 43.2677 56.0846 43.4436C55.9263 43.6195 55.7071 43.7287 55.4713 43.7494C55.3497 43.7555 55.2282 43.7368 55.1141 43.6944C54.9999 43.6521 54.8956 43.587 54.8074 43.5031C54.7192 43.4192 54.649 43.3183 54.601 43.2064C54.553 43.0945 54.5283 42.9741 54.5283 42.8523V39.2597H52.7319V42.8523C52.7319 43.0905 52.6373 43.319 52.4689 43.4874C52.3004 43.6559 52.072 43.7505 51.8338 43.7505C51.5956 43.7505 51.3671 43.6559 51.1987 43.4874C51.0303 43.319 50.9356 43.0905 50.9356 42.8523V39.2597H49.1393V42.8523C49.1393 43.0905 49.0447 43.319 48.8763 43.4874C48.7078 43.6559 48.4794 43.7505 48.2412 43.7505C48.003 43.7505 47.7745 43.6559 47.6061 43.4874C47.4376 43.319 47.343 43.0905 47.343 42.8523V39.2597H45.5467V42.8523C45.547 43.0882 45.4543 43.3147 45.2889 43.4827C45.1235 43.6508 44.8985 43.747 44.6627 43.7505H44.6503C44.4216 43.7482 44.2031 43.6553 44.0427 43.4923C43.9511 43.4023 43.8781 43.2951 43.828 43.1768C43.7779 43.0585 43.7517 42.9315 43.7508 42.8031V36.3407C43.7513 35.924 43.917 35.5245 44.2117 35.2298C44.5063 34.9351 44.9059 34.7694 45.3226 34.7689H54.7532C55.17 34.7694 55.5695 34.9351 55.8642 35.2298C56.1588 35.5245 56.3246 35.924 56.325 36.3407L56.3246 40.1579Z" fill="black"/>
<path d="M50.0372 50.0381H51.8335V54.5289H50.0372V50.0381Z" fill="black"/>
<path d="M50.0372 46.4453H51.8335V48.2416H50.0372V46.4453Z" fill="black"/>
<path d="M16.8517 36.8497C16.9114 37.0285 17.0257 37.184 17.1787 37.2942C17.3316 37.4044 17.5153 37.4637 17.7038 37.4637C17.8922 37.4637 18.0759 37.4044 18.2288 37.2942C18.3818 37.184 18.4961 37.0285 18.5558 36.8497C18.7921 36.1463 19.1882 35.5071 19.713 34.9823C20.2378 34.4576 20.8769 34.0615 21.5804 33.8252C21.7593 33.7656 21.9149 33.6512 22.0251 33.4983C22.1354 33.3454 22.1947 33.1616 22.1947 32.9731C22.1947 32.7845 22.1354 32.6008 22.0251 32.4478C21.9149 32.2949 21.7593 32.1805 21.5804 32.1209C20.8769 31.8846 20.2378 31.4885 19.713 30.9638C19.1882 30.439 18.7921 29.7999 18.5558 29.0964C18.4961 28.9176 18.3818 28.7621 18.2288 28.6519C18.0759 28.5417 17.8922 28.4824 17.7038 28.4824C17.5153 28.4824 17.3316 28.5417 17.1787 28.6519C17.0257 28.7621 16.9114 28.9176 16.8517 29.0964C16.6154 29.7999 16.2193 30.439 15.6945 30.9638C15.1697 31.4885 14.5306 31.8846 13.8271 32.1209C13.6482 32.1805 13.4926 32.2949 13.3824 32.4478C13.2721 32.6008 13.2128 32.7845 13.2128 32.9731C13.2128 33.1616 13.2721 33.3454 13.3824 33.4983C13.4926 33.6512 13.6482 33.7656 13.8271 33.8252C14.5306 34.0615 15.1697 34.4576 15.6945 34.9823C16.2193 35.5071 16.6154 36.1463 16.8517 36.8497ZM17.7038 31.3527C18.146 31.9825 18.6942 32.5308 19.324 32.9731C18.6942 33.4153 18.146 33.9636 17.7038 34.5935C17.2615 33.9636 16.7133 33.4153 16.0835 32.9731C16.7133 32.5308 17.2615 31.9825 17.7038 31.3527Z" fill="black"/>
<path d="M61.0992 21.3426C60.3957 21.1063 59.7566 20.7102 59.2318 20.1855C58.707 19.6607 58.3109 19.0216 58.0746 18.3181C58.0149 18.1393 57.9006 17.9838 57.7476 17.8736C57.5947 17.7634 57.411 17.7041 57.2226 17.7041C57.0341 17.7041 56.8504 17.7634 56.6975 17.8736C56.5445 17.9838 56.4302 18.1393 56.3705 18.3181C56.1342 19.0216 55.7381 19.6607 55.2133 20.1855C54.6885 20.7102 54.0494 21.1063 53.3459 21.3426C53.167 21.4022 53.0114 21.5166 52.9012 21.6695C52.7909 21.8225 52.7316 22.0062 52.7316 22.1947C52.7316 22.3833 52.7909 22.567 52.9012 22.72C53.0114 22.8729 53.167 22.9873 53.3459 23.0469C54.0494 23.2832 54.6885 23.6793 55.2133 24.204C55.7381 24.7288 56.1342 25.3679 56.3705 26.0714C56.4302 26.2502 56.5445 26.4057 56.6975 26.5159C56.8504 26.6261 57.0341 26.6854 57.2226 26.6854C57.411 26.6854 57.5947 26.6261 57.7476 26.5159C57.9006 26.4057 58.0149 26.2502 58.0746 26.0714C58.3109 25.3679 58.707 24.7288 59.2318 24.204C59.7566 23.6793 60.3957 23.2832 61.0992 23.0469C61.2781 22.9873 61.4337 22.8729 61.5439 22.72C61.6542 22.567 61.7135 22.3833 61.7135 22.1947C61.7135 22.0062 61.6542 21.8225 61.5439 21.6695C61.4337 21.5166 61.2781 21.4022 61.0992 21.3426ZM57.2226 23.8151C56.7803 23.1853 56.2321 22.637 55.6023 22.1947C56.2321 21.7525 56.7803 21.2042 57.2226 20.5744C57.6648 21.2042 58.213 21.7525 58.8428 22.1947C58.213 22.637 57.6648 23.1853 57.2226 23.8151Z" fill="black"/>
<path d="M12.3147 48.2402C12.5032 48.2402 12.6869 48.1809 12.8398 48.0707C12.9928 47.9605 13.1071 47.8049 13.1667 47.6261C13.4031 46.9226 13.7992 46.2835 14.324 45.7587C14.8487 45.234 15.4879 44.8379 16.1914 44.6016C16.3703 44.542 16.5259 44.4276 16.6361 44.2747C16.7464 44.1217 16.8057 43.938 16.8057 43.7494C16.8057 43.5609 16.7464 43.3771 16.6361 43.2242C16.5259 43.0713 16.3703 42.9569 16.1914 42.8973C15.4879 42.661 14.8487 42.2649 14.324 41.7402C13.7992 41.2154 13.4031 40.5762 13.1667 39.8728C13.1071 39.694 12.9927 39.5385 12.8398 39.4283C12.6869 39.3181 12.5032 39.2588 12.3147 39.2588C12.1262 39.2588 11.9425 39.3181 11.7896 39.4283C11.6367 39.5385 11.5223 39.694 11.4627 39.8728C11.2263 40.5762 10.8302 41.2154 10.3055 41.7402C9.78071 42.2649 9.14153 42.661 8.43805 42.8973C8.25917 42.9569 8.10358 43.0713 7.99332 43.2242C7.88306 43.3771 7.82373 43.5609 7.82373 43.7494C7.82373 43.938 7.88306 44.1217 7.99332 44.2747C8.10358 44.4276 8.25917 44.542 8.43805 44.6016C9.14153 44.8379 9.78071 45.234 10.3055 45.7587C10.8302 46.2835 11.2263 46.9226 11.4627 47.6261C11.5223 47.8049 11.6367 47.9605 11.7896 48.0707C11.9425 48.1809 12.1262 48.2402 12.3147 48.2402ZM12.3147 42.129C12.7569 42.7589 13.3052 43.3072 13.935 43.7494C13.3052 44.1917 12.7569 44.74 12.3147 45.3698C11.8725 44.74 11.3243 44.1917 10.6944 43.7494C11.3243 43.3072 11.8725 42.7589 12.3147 42.129Z" fill="black"/>
</svg>
