<svg width="69" height="69" viewBox="0 0 69 69" fill="none" xmlns="http://www.w3.org/2000/svg">
<path d="M26.627 33.8682V36.8262L28.599 38.7982V41.7562L30.571 45.7002H38.459L40.431 41.7562V38.7982L42.4029 36.8262V33.8682H26.627Z" fill="#0F52BA"/>
<path d="M28.5989 24.0078H32.5429V33.8678H28.5989V24.0078Z" fill="#F4F5F9"/>
<path d="M36.4869 24.0078H40.4309V33.8678H36.4869V24.0078Z" fill="#F4F5F9"/>
<path d="M30.5708 45.6992H38.4588V49.6432H30.5708V45.6992Z" fill="#0F52BA"/>
<path d="M32.543 49.6436H36.487V53.5876H32.543V49.6436Z" fill="#0F52BA"/>
<path d="M32.5431 53.5879H36.4871V63.4479H32.5431V53.5879Z" fill="#0F52BA"/>
<path d="M33.5289 6.25879H38.4589L35.5009 11.1888H40.4309L33.5289 20.0628V15.1328H28.5989L33.5289 6.25879Z" fill="#0F52BA"/>
<path d="M27.6129 32.8815H26.6269C26.3654 32.8815 26.1146 32.9854 25.9297 33.1703C25.7448 33.3552 25.6409 33.606 25.6409 33.8675V36.8255C25.6409 37.087 25.7448 37.3377 25.9298 37.5226L27.6129 39.2057V41.7555C27.6127 41.9084 27.6482 42.0593 27.7164 42.1962L29.5849 45.9322V49.6435C29.5849 49.905 29.6887 50.1558 29.8737 50.3407C30.0586 50.5256 30.3094 50.6295 30.5709 50.6295H31.5569V63.4475C31.5569 63.709 31.6607 63.9598 31.8457 64.1447C32.0306 64.3296 32.2814 64.4335 32.5429 64.4335H36.4869C36.7484 64.4335 36.9992 64.3296 37.1841 64.1447C37.369 63.9598 37.4729 63.709 37.4729 63.4475V50.6295H38.4589C38.7204 50.6295 38.9712 50.5256 39.1561 50.3407C39.341 50.1558 39.4449 49.905 39.4449 49.6435V45.9322L41.3183 42.1962C41.3848 42.0589 41.4185 41.908 41.4169 41.7555V39.2057L43.1 37.5226C43.2849 37.3377 43.3888 37.087 43.3889 36.8255V33.8675C43.3889 33.606 43.285 33.3552 43.1001 33.1703C42.9152 32.9854 42.6644 32.8815 42.4029 32.8815H41.4169V24.0075C41.4169 23.746 41.313 23.4952 41.1281 23.3103C40.9432 23.1254 40.6924 23.0215 40.4309 23.0215H36.4869C36.2254 23.0215 35.9746 23.1254 35.7897 23.3103C35.6047 23.4952 35.5009 23.746 35.5009 24.0075V32.8815H33.5289V24.0075C33.5289 23.746 33.425 23.4952 33.2401 23.3103C33.0552 23.1254 32.8044 23.0215 32.5429 23.0215H28.5989C28.3374 23.0215 28.0866 23.1254 27.9017 23.3103C27.7167 23.4952 27.6129 23.746 27.6129 24.0075V32.8815ZM35.5009 62.4615H33.5289V54.5735H35.5009V62.4615ZM35.5009 52.6015H33.5289V50.6295H35.5009V52.6015ZM37.4729 48.6575H31.5569V46.6855H37.4729V48.6575ZM37.4729 24.9935H39.4449V32.8815H37.4729V24.9935ZM29.5849 24.9935H31.5569V32.8815H29.5849V24.9935ZM41.4169 34.8535V36.4173L39.7338 38.1004C39.5488 38.2852 39.4449 38.536 39.4449 38.7975V41.5228L37.8495 44.7135H31.1802L29.5849 41.5228V38.7975C29.5848 38.536 29.4809 38.2852 29.296 38.1004L27.6129 36.4173V34.8535H41.4169Z" fill="black"/>
<path d="M31.557 36.8252H37.473V38.7972H31.557V36.8252Z" fill="black"/>
<path d="M31.557 40.7695H37.473V42.7415H31.557V40.7695Z" fill="black"/>
<path d="M39.3169 5.77334C39.2309 5.62159 39.1062 5.49536 38.9555 5.40754C38.8048 5.31972 38.6335 5.27344 38.4591 5.27344H33.5291C33.3533 5.27343 33.1807 5.32041 33.0292 5.40952C32.8777 5.49863 32.7527 5.62662 32.6673 5.78024L27.7373 14.6542C27.6538 14.8043 27.611 14.9736 27.6131 15.1453C27.6152 15.3171 27.6621 15.4853 27.7491 15.6333C27.8362 15.7813 27.9604 15.9041 28.1095 15.9893C28.2586 16.0746 28.4273 16.1194 28.5991 16.1194H32.5431V20.0634C32.5431 20.269 32.6073 20.4694 32.7268 20.6366C32.8464 20.8039 33.0151 20.9296 33.2096 20.9962C33.3125 21.0312 33.4204 21.0492 33.5291 21.0494C33.6792 21.0494 33.8273 21.0151 33.9621 20.9491C34.0969 20.8832 34.2149 20.7873 34.307 20.6688L41.209 11.7948C41.3224 11.6492 41.3925 11.4746 41.4115 11.291C41.4305 11.1074 41.3977 10.9222 41.3166 10.7564C41.2355 10.5906 41.1096 10.4509 40.953 10.3531C40.7965 10.2553 40.6156 10.2035 40.4311 10.2034H37.2433L39.3041 6.76723C39.394 6.61754 39.4426 6.44664 39.4449 6.27202C39.4471 6.09739 39.403 5.9253 39.3169 5.77334ZM38.4147 12.1754L34.5151 17.1892V15.1334C34.5151 14.8719 34.4112 14.6211 34.2263 14.4362C34.0414 14.2513 33.7906 14.1474 33.5291 14.1474H30.2753L34.1108 7.24544H36.7178L34.6571 10.6816C34.5672 10.8312 34.5187 11.0018 34.5163 11.1763C34.514 11.3507 34.558 11.5226 34.6438 11.6745C34.7296 11.8263 34.8542 11.9527 35.0048 12.0407C35.1554 12.1287 35.3266 12.1752 35.5011 12.1754H38.4147Z" fill="black"/>
<path d="M16.767 26.9668H21.697V28.9388H16.767V26.9668Z" fill="black"/>
<path d="M18.1483 21.8418L19.3309 20.265L23.2749 23.223L22.0923 24.7998L18.1483 21.8418Z" fill="black"/>
<path d="M18.1473 34.0635L22.0913 31.1055L23.2739 32.6823L19.3299 35.6403L18.1473 34.0635Z" fill="black"/>
<path d="M47.3331 26.9668H52.2631V28.9388H47.3331V26.9668Z" fill="black"/>
<path d="M45.7534 23.21L49.6974 20.252L50.88 21.8288L46.936 24.7868L45.7534 23.21Z" fill="black"/>
<path d="M45.7593 32.6943L46.9419 31.1175L50.8859 34.0755L49.7033 35.6523L45.7593 32.6943Z" fill="black"/>
</svg>
