<svg width="68" height="68" viewBox="0 0 68 68" fill="none" xmlns="http://www.w3.org/2000/svg">
<path d="M52 17.8086H17V60H52V17.8086Z" fill="#0F52BA"/>
<path d="M46.2387 17.8086H22.7614V58.9182H46.2387V17.8086Z" fill="white"/>
<path d="M27.4424 56.5383C27.4424 57.2595 28.0185 57.8365 28.7387 57.8365H40.3333C41.0535 57.8365 41.6296 57.2595 41.6296 56.5383V38.7962C41.6296 38.075 41.0535 37.498 40.3333 37.498H28.6667C27.9465 37.498 27.3704 38.075 27.3704 38.7962V56.5383H27.4424Z" fill="#E0E0E0"/>
<path d="M49.3354 14.2744H19.6646C18.2243 14.2744 17 15.5005 17 16.9429V17.8084H52V16.9429C52 15.4284 50.7757 14.2744 49.3354 14.2744Z" fill="#0A3F92"/>
<path d="M36.9486 54.0135C36.9486 55.6723 35.5802 57.0426 33.9239 57.0426C32.2675 57.0426 30.8992 55.6723 30.8992 54.0135C30.8992 52.3547 32.2675 50.9844 33.9239 50.9844C35.6523 50.9844 36.9486 52.3547 36.9486 54.0135Z" fill="white"/>
<path d="M36.6605 54.0132C36.6605 55.4557 35.4362 56.6818 33.9959 56.6818C32.5556 56.6818 31.3313 55.4557 31.3313 54.0132C31.3313 52.5708 32.5556 51.3447 33.9959 51.3447C35.4362 51.3447 36.6605 52.5708 36.6605 54.0132Z" fill="#0F52BA"/>
<path d="M35.7963 52.5711L35.5083 52.2826L35.2202 51.9941L31.6914 54.879L32.2675 55.5281L32.9157 56.1772L35.7963 52.5711Z" fill="white"/>
<path d="M30.035 53.1476C30.3231 52.21 30.8272 51.4888 31.4754 50.9839C31.4033 50.9118 31.3313 50.8397 31.3313 50.7676C30.6112 51.3446 30.1791 52.1379 30.035 53.1476Z" fill="#D1132D"/>
<path d="M31.6194 50.4075C31.6914 50.4796 31.7634 50.6238 31.7634 50.6959C32.3396 50.3353 33.0597 50.119 33.7799 50.119C33.7799 49.9026 33.7799 49.7584 33.7799 49.542C32.9877 49.6141 32.2675 49.9747 31.6194 50.4075Z" fill="#D1132D"/>
<path d="M34.2841 49.542C34.2841 49.7584 34.2841 49.9747 34.212 50.1911C34.9322 50.2632 35.5803 50.4796 36.1565 50.8402C36.3005 50.6238 36.5166 50.3353 36.6606 50.119C35.9404 49.6862 35.0762 49.4699 34.2841 49.542Z" fill="#D1132D"/>
<path d="M38.965 52.7871C38.605 51.7053 37.8848 50.9119 37.1646 50.335C36.9486 50.5513 36.7325 50.8398 36.5885 51.0562C37.1646 51.561 37.5967 52.2101 37.8848 53.0756C38.2449 53.0035 38.605 52.9314 38.965 52.7871Z" fill="#D1132D"/>
<path d="M44.8704 14.2748H24.1296C24.1296 13.5535 24.7058 12.9766 25.4259 12.9766H43.6461C44.2942 12.9766 44.8704 13.5535 44.8704 14.2748Z" fill="#4A666D"/>
<path d="M39.3251 8H29.6029V12.9764H39.3251V8Z" fill="#223137"/>
<path d="M30.1071 43.9892C30.1071 46.4414 32.0515 48.3887 34.5001 48.3887C36.9486 48.3887 38.8931 46.4414 38.8931 43.9892C38.8931 41.5371 36.9486 39.5898 34.5001 39.5898C32.0515 39.5176 30.1071 41.5371 30.1071 43.9892Z" fill="#223137"/>
<path d="M30.6112 43.9895C30.6112 46.1531 32.3396 47.884 34.5001 47.884C36.6606 47.884 38.389 46.1531 38.389 43.9895C38.389 41.8258 36.6606 40.0949 34.5001 40.0949C32.3396 40.0227 30.6112 41.8258 30.6112 43.9895Z" fill="white"/>
<path d="M34.284 44.2782C34.428 44.3503 34.6441 44.3503 34.7881 44.1339C34.8601 43.9897 34.8601 43.7733 34.6441 43.6291C34.5 43.557 34.284 43.5569 34.1399 43.7733C34.0679 43.9176 34.1399 44.1339 34.284 44.2782Z" fill="#D1132D"/>
<path d="M34.5721 40.0225H34.3561V40.8879H34.5721V40.0225Z" fill="#223137"/>
<path d="M36.0844 40.3114L35.9404 40.2393L35.5803 41.1047L35.7964 41.1768L36.0844 40.3114Z" fill="#223137"/>
<path d="M37.2057 41.1343L36.5945 41.7461L36.7472 41.8991L37.3585 41.2873L37.2057 41.1343Z" fill="#223137"/>
<path d="M38.0869 42.3177L37.2887 42.6494L37.3715 42.8493L38.1697 42.5175L38.0869 42.3177Z" fill="#223137"/>
<path d="M38.461 43.8447H37.5968V44.0611H38.461V43.8447Z" fill="#223137"/>
<path d="M31.4034 43.8447H30.5392V44.0611H31.4034V43.8447Z" fill="#223137"/>
<path d="M30.8868 42.3783L30.804 42.5781L31.6021 42.9099L31.6849 42.71L30.8868 42.3783Z" fill="#223137"/>
<path d="M31.7796 41.0834L31.6268 41.2363L32.2377 41.8485L32.3905 41.6955L31.7796 41.0834Z" fill="#223137"/>
<path d="M33.4198 41.1047L33.0597 40.2393L32.8436 40.3114L33.2037 41.1768L33.4198 41.1047Z" fill="#223137"/>
<path d="M35.0762 44.4937L35.2922 44.2053L31.9075 42.3301L31.8354 42.4743L35.0762 44.4937Z" fill="#D1132D"/>
</svg>
