<svg width="68" height="68" viewBox="0 0 68 68" fill="none" xmlns="http://www.w3.org/2000/svg">
<path d="M52.7258 50.0077V60.9765H15.0647V50.0077C15.0642 48.0013 15.7054 46.0474 16.8945 44.4313C18.0837 42.8153 19.7585 41.6219 21.6742 41.0256L23.5384 40.4418L27.3045 39.2649L30.1291 38.3799C30.1291 39.3787 30.5259 40.3366 31.2322 41.0429C31.9385 41.7492 32.8964 42.146 33.8952 42.146C34.8941 42.146 35.852 41.7492 36.5583 41.0429C37.2646 40.3366 37.6613 39.3787 37.6613 38.3799L40.4859 39.2649L44.252 40.4418L46.1163 41.0256C48.032 41.6219 49.7068 42.8153 50.8959 44.4313C52.0851 46.0474 52.7263 48.0013 52.7258 50.0077Z" fill="#0F52BA"/>
<path d="M44.252 47.7949H23.5384C23.0395 47.7964 22.5614 47.9953 22.2086 48.3481C21.8558 48.7009 21.6569 49.179 21.6554 49.678V60.9763H46.1351V49.678C46.1336 49.179 45.9347 48.7009 45.5819 48.3481C45.2291 47.9953 44.751 47.7964 44.252 47.7949Z" fill="#F4F5F9"/>
<path d="M37.6614 32.7314V38.3806C37.6614 39.3794 37.2646 40.3374 36.5583 41.0436C35.852 41.7499 34.8941 42.1467 33.8953 42.1467C32.8964 42.1467 31.9385 41.7499 31.2322 41.0436C30.5259 40.3374 30.1292 39.3794 30.1292 38.3806V32.7314H37.6614Z" fill="#FFD298"/>
<path d="M37.6614 32.7314V35.7067C36.4743 36.2282 35.1918 36.4975 33.8953 36.4975C32.5987 36.4975 31.3162 36.2282 30.1292 35.7067V32.7314H37.6614Z" fill="#FFD298"/>
<path d="M47.0765 23.3158C47.0765 24.0649 46.7789 24.7834 46.2492 25.3131C45.7195 25.8428 45.0011 26.1404 44.252 26.1404H42.3689V20.4912H44.252C45.0011 20.4912 45.7195 20.7888 46.2492 21.3185C46.7789 21.8482 47.0765 22.5667 47.0765 23.3158Z" fill="#FFD298"/>
<path d="M25.4215 20.4912V26.1404H23.5384C22.7893 26.1404 22.0709 25.8428 21.5412 25.3131C21.0115 24.7834 20.7139 24.0649 20.7139 23.3158C20.7139 22.5667 21.0115 21.8482 21.5412 21.3185C22.0709 20.7888 22.7893 20.4912 23.5384 20.4912H25.4215Z" fill="#FFD298"/>
<path d="M46.1353 55.3281H52.7259V60.9773H46.1353V55.3281Z" fill="#FFD298"/>
<path d="M54.0535 52.1171C53.8809 51.94 53.6743 51.7996 53.4463 51.7042C53.2182 51.6087 52.9732 51.5602 52.7259 51.5615H46.1353V55.3277H52.7259C53.2249 55.3262 53.703 55.1273 54.0558 54.7745C54.4086 54.4217 54.6075 53.9436 54.609 53.4446C54.6103 53.1974 54.5618 52.9524 54.4664 52.7243C54.3709 52.4962 54.2305 52.2897 54.0535 52.1171Z" fill="#0F52BA"/>
<path d="M43.3106 15.7828V16.2912L37.925 15.4626L39.9587 8.58008C41.0098 9.46283 41.8546 10.5652 42.4337 11.8096C43.0128 13.054 43.3121 14.4102 43.3106 15.7828Z" fill="#0F52BA"/>
<path d="M39.9587 8.58051L37.925 15.4631L36.1831 15.19C34.6662 14.9641 33.1242 14.9641 31.6073 15.19L29.8655 15.4631L27.8318 8.58051C29.5291 7.15168 31.6765 6.36816 33.8952 6.36816C36.1139 6.36816 38.2613 7.15168 39.9587 8.58051Z" fill="#0F52BA"/>
<path d="M27.8318 8.58008L29.8655 15.4626L24.48 16.2912V15.7828C24.4787 14.5462 24.7217 13.3215 25.1951 12.1792C25.6685 11.0368 26.363 9.99929 27.2387 9.12616C27.427 8.93786 27.6247 8.75897 27.8318 8.58008Z" fill="#0F52BA"/>
<path d="M40.4861 39.2656V49.6789C40.4898 50.1772 40.6894 50.654 41.0417 51.0063C41.394 51.3587 41.8709 51.5583 42.3691 51.562C42.8681 51.5605 43.3462 51.3616 43.699 51.0088C44.0518 50.656 44.2507 50.1779 44.2522 49.6789V40.4425L40.4861 39.2656Z" fill="#F4F5F9"/>
<path d="M23.5386 47.7959V49.6789C23.5423 50.1772 23.7418 50.654 24.0942 51.0063C24.4465 51.3587 24.9234 51.5583 25.4216 51.562C25.9206 51.5605 26.3987 51.3616 26.7515 51.0088C27.1043 50.656 27.3032 50.1779 27.3047 49.6789V39.2656L23.5386 40.4425V47.7959Z" fill="#F4F5F9"/>
<path d="M43.3105 20.2551V25.1981C43.3105 25.5182 43.2917 25.8289 43.2634 26.1396C43.0303 28.4622 41.9427 30.6154 40.2116 32.1814C38.4806 33.7474 36.2295 34.6146 33.8953 34.6146C31.561 34.6146 29.3099 33.7474 27.5789 32.1814C25.8478 30.6154 24.7602 28.4622 24.5271 26.1396C24.4988 25.8289 24.48 25.5182 24.48 25.1981V20.2551C24.6307 20.2724 24.7832 20.266 24.9319 20.2363L31.871 18.9746C33.2094 18.7298 34.5811 18.7298 35.9195 18.9746L42.8586 20.2363C43.0073 20.266 43.1598 20.2724 43.3105 20.2551Z" fill="#FFD298"/>
<path d="M43.5837 16.3292L43.3106 16.2916L37.9251 15.463L36.1833 15.19C34.6664 14.964 33.1244 14.964 31.6075 15.19L29.8656 15.463L24.4801 16.2916L24.2071 16.3292C23.9144 16.375 23.6366 16.4892 23.3964 16.6625C23.1562 16.8358 22.9602 17.0633 22.8244 17.3266C22.6886 17.5899 22.6169 17.8815 22.615 18.1777C22.6131 18.4739 22.6812 18.7664 22.8136 19.0314L22.9078 19.2291C23.0581 19.522 23.2822 19.7707 23.5579 19.9507C23.8336 20.1306 24.1515 20.2356 24.4801 20.2554C24.6308 20.2727 24.7833 20.2663 24.932 20.2366L31.8711 18.9749C33.2095 18.7301 34.5812 18.7301 35.9197 18.9749L42.8587 20.2366C43.0075 20.2663 43.1599 20.2727 43.3106 20.2554C43.6393 20.2356 43.9571 20.1306 44.2328 19.9507C44.5085 19.7707 44.7326 19.522 44.883 19.2291L44.9771 19.0314C45.1096 18.7664 45.1776 18.4739 45.1757 18.1777C45.1738 17.8815 45.1021 17.5899 44.9663 17.3266C44.8306 17.0633 44.6346 16.8358 44.3943 16.6625C44.1541 16.4892 43.8764 16.375 43.5837 16.3292Z" fill="#0F52BA"/>
<path d="M15.0647 55.3281H21.6554V60.9773H15.0647V55.3281Z" fill="#FFD298"/>
<path d="M15.0647 51.5615C14.5664 51.5652 14.0896 51.7648 13.7373 52.1171C13.3849 52.4695 13.1853 52.9463 13.1816 53.4446C13.1831 53.9435 13.382 54.4216 13.7348 54.7745C14.0876 55.1273 14.5657 55.3261 15.0647 55.3276H21.6554V51.5615H15.0647Z" fill="#0F52BA"/>
<path d="M15.0647 55.3281H21.6554V57.2112H15.0647V55.3281Z" fill="#FFB655"/>
<path d="M46.1353 55.3281H52.7259V57.2112H46.1353V55.3281Z" fill="#FFB655"/>
<path d="M28.2461 22.374H30.1291V24.2571H28.2461V22.374Z" fill="black"/>
<path d="M37.6615 22.374H39.5446V24.2571H37.6615V22.374Z" fill="black"/>
<path d="M37.6614 27.0811H35.7783C35.7783 27.5805 35.5799 28.0594 35.2268 28.4126C34.8736 28.7657 34.3947 28.9641 33.8953 28.9641C33.3958 28.9641 32.9169 28.7657 32.5637 28.4126C32.2106 28.0594 32.0122 27.5805 32.0122 27.0811H30.1292C30.1292 28.0799 30.5259 29.0378 31.2322 29.7441C31.9385 30.4504 32.8964 30.8472 33.8953 30.8472C34.8941 30.8472 35.852 30.4504 36.5583 29.7441C37.2646 29.0378 37.6614 28.0799 37.6614 27.0811Z" fill="black"/>
<path d="M53.6674 50.7892V50.0078C53.6768 47.7993 52.975 45.6464 51.666 43.8677C50.357 42.089 48.5101 40.7789 46.3988 40.1311L38.6029 37.6926V34.4161C39.5685 33.9252 40.4516 33.2867 41.2204 32.5236C42.7027 31.042 43.6979 29.1435 44.0732 27.0816H44.2521C45.1279 27.0793 45.9755 26.772 46.6491 26.2123C47.3227 25.6527 47.7803 24.8758 47.943 24.0153C48.1057 23.1548 47.9635 22.2645 47.5408 21.4975C47.118 20.7305 46.4412 20.1349 45.6267 19.813C45.655 19.7659 45.6926 19.7094 45.7209 19.6529L45.8244 19.4552C46.0233 19.057 46.1252 18.6175 46.122 18.1725C46.1187 17.7274 46.0103 17.2895 45.8056 16.8943C45.4766 16.2616 44.917 15.7796 44.2427 15.5479C44.1795 12.8454 43.0616 10.2749 41.128 8.38597C39.1944 6.49699 36.5985 5.43945 33.8953 5.43945C31.1921 5.43945 28.5962 6.49699 26.6626 8.38597C24.729 10.2749 23.6111 12.8454 23.5479 15.5479C22.8736 15.7796 22.314 16.2616 21.985 16.8943C21.7803 17.2895 21.6719 17.7274 21.6686 18.1725C21.6654 18.6175 21.7673 19.057 21.9662 19.4552L22.0603 19.6435C22.098 19.7094 22.1356 19.7565 22.1639 19.813C21.3494 20.1349 20.6726 20.7305 20.2498 21.4975C19.8271 22.2645 19.6849 23.1548 19.8476 24.0153C20.0103 24.8758 20.4679 25.6527 21.1415 26.2123C21.8151 26.772 22.6627 27.0793 23.5385 27.0816H23.7174C24.0095 28.6403 24.6542 30.1116 25.6024 31.3829C26.5505 32.6542 27.7769 33.6917 29.1877 34.4161V37.6926L21.3918 40.1217C19.2806 40.7727 17.4344 42.085 16.1257 43.865C14.817 45.645 14.115 47.7984 14.1232 50.0078V50.7892C13.5729 50.982 13.096 51.3411 12.7586 51.8167C12.4212 52.2924 12.24 52.8612 12.24 53.4443C12.24 54.0275 12.4212 54.5963 12.7586 55.0719C13.096 55.5476 13.5729 55.9066 14.1232 56.0994V60.9765C14.1232 61.2263 14.2224 61.4657 14.399 61.6423C14.5756 61.8189 14.8151 61.9181 15.0648 61.9181H52.7258C52.9756 61.9181 53.215 61.8189 53.3916 61.6423C53.5682 61.4657 53.6674 61.2263 53.6674 60.9765V56.0994C54.2178 55.9066 54.6946 55.5476 55.032 55.0719C55.3694 54.5963 55.5506 54.0275 55.5506 53.4443C55.5506 52.8612 55.3694 52.2924 55.032 51.8167C54.6946 51.3411 54.2178 50.982 53.6674 50.7892ZM44.2521 21.4324C44.7511 21.4339 45.2292 21.6328 45.582 21.9856C45.9348 22.3384 46.1337 22.8165 46.1352 23.3155C46.1315 23.8137 45.9319 24.2906 45.5795 24.6429C45.2272 24.9952 44.7504 25.1948 44.2521 25.1985V21.4324ZM23.5385 25.1985C23.0402 25.1948 22.5634 24.9952 22.2111 24.6429C21.8587 24.2906 21.6591 23.8137 21.6555 23.3155C21.6569 22.8165 21.8558 22.3384 22.2086 21.9856C22.5614 21.6328 23.0395 21.4339 23.5385 21.4324V25.1985ZM41.4275 40.5454L43.3106 41.1386V49.6782C43.3106 49.9279 43.2114 50.1674 43.0348 50.344C42.8582 50.5206 42.6188 50.6197 42.369 50.6197C42.1193 50.6197 41.8799 50.5206 41.7033 50.344C41.5267 50.1674 41.4275 49.9279 41.4275 49.6782V40.5454ZM40.4107 10.3695C41.5423 11.735 42.2174 13.4209 42.3408 15.1901L39.1302 14.6911L40.4107 10.3695ZM33.8953 7.30951C35.6862 7.31115 37.4302 7.88151 38.876 8.93835L37.2566 14.4086L36.3244 14.2674C34.715 14.0132 33.0756 14.0132 31.4662 14.2674L30.534 14.4086L28.9146 8.93835C30.3583 7.87737 32.1037 7.30656 33.8953 7.30951ZM27.3799 10.3695L28.6604 14.6911L25.4498 15.1901C25.5674 13.4196 26.2431 11.7319 27.3799 10.3695ZM23.7456 18.8056L23.6515 18.6172C23.5856 18.4837 23.5521 18.3366 23.5538 18.1877C23.5554 18.0389 23.5921 17.8925 23.6609 17.7605C23.727 17.6282 23.824 17.5138 23.9436 17.427C24.0632 17.3401 24.202 17.2833 24.3482 17.2614L31.7486 16.1222C33.1718 15.9088 34.6188 15.9088 36.042 16.1222L43.4424 17.2614C43.5886 17.2833 43.7274 17.3401 43.847 17.427C43.9666 17.5138 44.0636 17.6282 44.1297 17.7605C44.1985 17.8925 44.2352 18.0389 44.2368 18.1877C44.2385 18.3366 44.205 18.4837 44.1391 18.6172L44.045 18.8056C43.9517 18.9875 43.8027 19.1349 43.6199 19.2264C43.437 19.3178 43.2297 19.3485 43.0281 19.314L36.0891 18.0523C34.6384 17.7887 33.1522 17.7887 31.7015 18.0523L24.7625 19.314C24.5609 19.3485 24.3536 19.3178 24.1708 19.2264C23.9879 19.1349 23.8389 18.9875 23.7456 18.8056ZM25.4216 25.1985V21.1029L32.0405 19.8977C33.2676 19.6812 34.5231 19.6812 35.7501 19.8977L42.369 21.1029V25.1985C42.369 27.4459 41.4763 29.6012 39.8871 31.1904C38.298 32.7795 36.1427 33.6723 33.8953 33.6723C31.6479 33.6723 29.4926 32.7795 27.9035 31.1904C26.3143 29.6012 25.4216 27.4459 25.4216 25.1985ZM36.7199 35.1599V38.3799C36.7199 39.129 36.4223 39.8475 35.8926 40.3772C35.3629 40.9069 34.6444 41.2045 33.8953 41.2045C33.1462 41.2045 32.4277 40.9069 31.898 40.3772C31.3683 39.8475 31.0707 39.129 31.0707 38.3799V35.1505C31.9882 35.4192 32.9393 35.5555 33.8953 35.5553C34.8505 35.5533 35.8009 35.4203 36.7199 35.1599ZM28.2461 39.9522L29.3666 39.6039C29.6319 40.6024 30.2199 41.4852 31.0389 42.1149C31.8579 42.7447 32.8621 43.0862 33.8953 43.0862C34.9285 43.0862 35.9327 42.7447 36.7517 42.1149C37.5707 41.4852 38.1587 40.6024 38.424 39.6039L39.5445 39.9522V46.8536H28.2461V39.9522ZM24.48 41.1386L26.3631 40.5454V49.6782C26.3631 49.9279 26.2639 50.1674 26.0873 50.344C25.9107 50.5206 25.6713 50.6197 25.4216 50.6197C25.1719 50.6197 24.9324 50.5206 24.7558 50.344C24.5792 50.1674 24.48 49.9279 24.48 49.6782V41.1386ZM20.7139 60.035H16.0063V56.2689H20.7139V60.035ZM20.7139 54.3859H15.0648C14.8151 54.3859 14.5756 54.2867 14.399 54.1101C14.2224 53.9335 14.1232 53.694 14.1232 53.4443C14.1232 53.1946 14.2224 52.9551 14.399 52.7786C14.5756 52.602 14.8151 52.5028 15.0648 52.5028H20.7139V54.3859ZM20.7139 49.6782V50.6197H16.0063V50.0078C16.0005 48.2 16.5757 46.4382 17.6471 44.9821C18.7184 43.526 20.2292 42.4525 21.9567 41.92L22.597 41.7223V47.0231C22.0483 47.2185 21.5732 47.5783 21.2362 48.0534C20.8993 48.5284 20.7169 49.0958 20.7139 49.6782ZM45.1936 60.035H22.597V49.6782C22.597 50.4273 22.8946 51.1458 23.4243 51.6755C23.954 52.2052 24.6724 52.5028 25.4216 52.5028C26.1707 52.5028 26.8891 52.2052 27.4188 51.6755C27.9486 51.1458 28.2461 50.4273 28.2461 49.6782V48.7367H39.5445V49.6782C39.5445 50.4273 39.8421 51.1458 40.3718 51.6755C40.9015 52.2052 41.6199 52.5028 42.369 52.5028C43.1182 52.5028 43.8366 52.2052 44.3663 51.6755C44.896 51.1458 45.1936 50.4273 45.1936 49.6782V60.035ZM45.1936 47.0231V41.7223L45.8339 41.9295C47.5616 42.4587 49.073 43.53 50.1446 44.9848C51.2163 46.4397 51.7912 48.2008 51.7843 50.0078V50.6197H47.0767V49.6782C47.0737 49.0958 46.8913 48.5284 46.5544 48.0534C46.2174 47.5783 45.7423 47.2185 45.1936 47.0231ZM51.7843 60.035H47.0767V56.2689H51.7843V60.035ZM52.7258 54.3859H47.0767V52.5028H52.7258C52.9756 52.5028 53.215 52.602 53.3916 52.7786C53.5682 52.9551 53.6674 53.1946 53.6674 53.4443C53.6674 53.694 53.5682 53.9335 53.3916 54.1101C53.215 54.2867 52.9756 54.3859 52.7258 54.3859Z" fill="black"/>
</svg>
