<svg width="20" height="19" viewBox="0 0 20 19" fill="none" xmlns="http://www.w3.org/2000/svg">
<path d="M7.80148 15.603C3.48066 15.603 0 12.1223 0 7.80148C0 3.48066 3.48066 0 7.80148 0C12.1223 0 15.603 3.48066 15.603 7.80148C15.603 12.1223 12.1223 15.603 7.80148 15.603ZM7.80148 1.20023C4.14078 1.20023 1.20023 4.14078 1.20023 7.80148C1.20023 11.4622 4.14078 14.4027 7.80148 14.4027C11.4622 14.4027 14.4027 11.4622 14.4027 7.80148C14.4027 4.14078 11.4622 1.20023 7.80148 1.20023Z" fill="black"/>
<path d="M13.6122 12.7627L19.0013 18.1517L18.1527 19.0003L12.7637 13.6113L13.6122 12.7627Z" fill="black"/>
</svg>
